<svg width="42" height="42" viewBox="0 0 42 42" fill="none" xmlns="http://www.w3.org/2000/svg">
<g clip-path="url(#clip0_6_552)">
<path d="M37.0781 19.7695H32.1152V2.87109C32.1152 1.28789 30.8273 0 29.2441 0C28.5031 0 13.5696 0 12.7559 0C11.1727 0 9.88477 1.28789 9.88477 2.87109V19.7695H4.92188C2.20828 19.7695 0 21.9778 0 24.6914C0 26.9866 1.57992 28.9209 3.70945 29.4623V39.1289C3.70945 40.7121 4.99734 42 6.58055 42H35.4195C37.0027 42 38.2905 40.7121 38.2905 39.1289V29.4623C40.4201 28.9209 42 26.9866 42 24.6914C42 21.9778 39.7917 19.7695 37.0781 19.7695ZM32.7805 22.2305C31.9015 23.75 31.8975 25.6261 32.7805 27.1523H25.2615C26.1366 25.6398 26.1485 23.7637 25.2615 22.2305H32.7805ZM18.7179 2.46094H23.2821V6.11461L22.0705 5.37223C21.4022 4.96428 20.5853 4.97273 19.9279 5.37305L18.7179 6.11461V2.46094ZM12.3457 2.87109C12.3457 2.64469 12.5295 2.46094 12.7559 2.46094H16.257V6.84797C16.257 8.4543 18.0222 9.42925 19.3791 8.59606L21 7.60266L22.6201 8.59523C23.9842 9.43318 25.743 8.44873 25.743 6.84797V2.46094H29.2441C29.4705 2.46094 29.6543 2.64469 29.6543 2.87109V19.7695H12.3457V2.87109ZM23.1304 25.9219C22.1785 27.562 19.8204 27.56 18.8696 25.9219C17.9185 24.2834 19.1152 22.2305 21 22.2305C22.8932 22.2305 24.0763 24.2923 23.1304 25.9219ZM9.1834 22.2305H16.7385C15.8634 23.743 15.8515 25.6191 16.7385 27.1523H9.1834C10.0422 25.6677 10.0862 23.7912 9.1834 22.2305ZM2.46094 24.6914C2.46094 23.3346 3.56508 22.2305 4.92188 22.2305C7.40119 22.2305 8.33462 25.5319 6.17039 26.8111C4.53657 27.7782 2.46094 26.5914 2.46094 24.6914ZM35.8296 39.1289C35.8296 39.3553 35.6459 39.5391 35.4195 39.5391H6.58055C6.35414 39.5391 6.17039 39.3553 6.17039 39.1289V29.6133H35.8296V39.1289ZM38.2905 26.8111C36.1182 28.0969 33.6537 25.6279 34.9117 23.4609C35.3382 22.7259 36.1331 22.2305 37.042 22.2305C39.5337 22.2305 40.4435 25.5373 38.2905 26.8111Z" fill="white"/>
<path d="M23.8984 13.1042H18.1016C17.422 13.1042 16.8711 13.6552 16.8711 14.3347C16.8711 15.0143 17.422 15.5652 18.1016 15.5652H23.8984C24.5779 15.5652 25.1289 15.0143 25.1289 14.3347C25.1289 13.6552 24.5779 13.1042 23.8984 13.1042Z" fill="white"/>
</g>
<defs>
<clipPath id="clip0_6_552">
<rect width="42" height="42" fill="white"/>
</clipPath>
</defs>
</svg>
