<svg width="42" height="42" viewBox="0 0 42 42" fill="none" xmlns="http://www.w3.org/2000/svg">
<g clip-path="url(#clip0_6_560)">
<path d="M39.1278 18.5708H37.1758L35.4315 15.1448C34.9506 14.2 34.0039 13.6063 32.9487 13.5791V10.4669C32.9487 9.59689 32.4038 8.85221 31.6376 8.55485V5.78392C31.6376 4.6532 30.7177 3.73322 29.5869 3.73322H25.6569C24.5262 3.73322 23.6062 4.65311 23.6062 5.78392V8.55485C22.8401 8.85229 22.2953 9.59689 22.2953 10.4669V13.7285C21.1622 14.1129 20.3442 15.1861 20.3442 16.4474V23.0189H17.8731V18.2288C17.8731 17.0981 16.9532 16.1781 15.8224 16.1781H14.4528V11.388C14.4528 10.2572 13.5329 9.33726 12.4021 9.33726H7.20202C6.0713 9.33726 5.15132 10.2572 5.15132 11.388V16.1781H3.78164C2.65092 16.1781 1.73094 17.098 1.73094 18.2288V23.2527C0.452402 23.8048 -0.335754 25.2838 0.139945 26.7667L3.18888 36.2725C3.57139 37.4653 4.67004 38.2667 5.92266 38.2667H35.8072C37.1426 38.2667 38.2911 37.3594 38.6001 36.0604L41.9207 22.1065C42.3497 20.3035 40.984 18.5708 39.1278 18.5708ZM26.0672 6.19407H29.1769V8.41622H26.0672V6.19407ZM24.7562 10.8771H30.4879V13.5766H24.7562V10.8771ZM22.8051 16.4475C22.8051 16.2213 22.9891 16.0373 23.2153 16.0373H32.8731C33.0282 16.0373 33.1682 16.1232 33.2386 16.2614L34.4144 18.5708H28.9062C27.9133 18.5708 26.9749 19.0969 26.4569 19.9437L24.696 22.8229C24.6221 22.9439 24.488 23.019 24.3462 23.019H22.8051V16.4475ZM15.4124 18.639V23.0189H11.0325V18.639H15.4124ZM7.61217 11.7983H11.9921V16.1783C11.5297 16.1783 8.07655 16.1783 7.61217 16.1783V11.7983ZM4.19171 18.639H8.57161V23.0189H4.19171V18.639ZM39.5267 21.5367L36.2061 35.4907C36.162 35.6763 35.9979 35.8059 35.8072 35.8059H5.92266C5.74366 35.8059 5.58674 35.6914 5.53211 35.5211L2.48317 26.0153C2.39835 25.7507 2.59448 25.4799 2.87372 25.4799H24.3462C25.339 25.4799 26.2775 24.9537 26.7954 24.1069L28.5562 21.2278C28.6302 21.1068 28.7643 21.0316 28.9062 21.0316H39.1278C39.3926 21.0316 39.5883 21.2781 39.5267 21.5367Z" fill="white"/>
<path d="M13.0303 29.4125H11.362C10.6824 29.4125 10.1316 29.9634 10.1316 30.6429C10.1316 31.3225 10.6824 31.8733 11.362 31.8733H13.0303C13.7099 31.8733 14.2607 31.3225 14.2607 30.6429C14.2608 29.9635 13.7099 29.4125 13.0303 29.4125Z" fill="#005EB8"/>
<path d="M21.8348 29.4125H20.1664C19.4869 29.4125 18.936 29.9634 18.936 30.6429C18.936 31.3225 19.4869 31.8733 20.1664 31.8733H21.8348C22.5143 31.8733 23.0652 31.3225 23.0652 30.6429C23.0652 29.9635 22.5142 29.4125 21.8348 29.4125Z" fill="#005EB8"/>
<path d="M30.639 29.4125H28.9706C28.2911 29.4125 27.7402 29.9634 27.7402 30.6429C27.7402 31.3225 28.2911 31.8733 28.9706 31.8733H30.639C31.3185 31.8733 31.8694 31.3225 31.8694 30.6429C31.8694 29.9635 31.3185 29.4125 30.639 29.4125Z" fill="#005EB8"/>
</g>
<defs>
<clipPath id="clip0_6_560">
<rect width="42" height="42" fill="white"/>
</clipPath>
</defs>
</svg>
