<svg width="42" height="42" viewBox="0 0 42 42" fill="none" xmlns="http://www.w3.org/2000/svg">
<g clip-path="url(#clip0_6_535)">
<path d="M39.1289 0C38.6622 0 3.52775 0 2.87109 0C1.28797 0 0 1.28797 0 2.87109V39.1289C0 40.712 1.28797 42 2.87109 42H39.1289C40.712 42 42 40.712 42 39.1289V2.87109C42 1.28797 40.712 0 39.1289 0ZM24.8555 2.46094V8.55455C24.8555 8.76373 24.7241 8.86856 24.6457 8.91245C24.5675 8.95634 24.4095 9.01359 24.231 8.90425L22.5004 7.84358C21.575 7.27642 20.4252 7.27634 19.4997 7.84358L17.769 8.90433C17.4956 9.07184 17.1445 8.87759 17.1445 8.55463V2.46094H24.8555ZM39.5391 39.1289C39.5391 39.3551 39.3551 39.5391 39.1289 39.5391H2.87109C2.64493 39.5391 2.46094 39.3551 2.46094 39.1289V2.87109C2.46094 2.64493 2.64493 2.46094 2.87109 2.46094H14.6836V8.55455C14.6836 10.7992 17.1401 12.1759 19.055 11.0024L20.7857 9.9417C20.918 9.86065 21.0822 9.86065 21.2144 9.9417L22.9451 11.0024C24.8592 12.1755 27.3166 10.8004 27.3166 8.55455V2.46094H39.1291C39.3552 2.46094 39.5392 2.64493 39.5392 2.87109V39.1289H39.5391Z" fill="white"/>
<path d="M7.62187 24.9034V29.2099C7.62187 30.3407 8.54185 31.2607 9.67265 31.2607H15.4697C16.6005 31.2607 17.5205 30.3407 17.5205 29.2099V24.9034C19.1202 24.7935 19.9855 22.9582 19.0364 21.6521L14.2303 15.0371C13.4127 13.912 11.7301 13.9112 10.9121 15.0371L6.10593 21.6521C5.1556 22.9601 6.02439 24.7937 7.62187 24.9034ZM12.5712 16.9403L16.5724 22.4474H16.29C15.6105 22.4474 15.0596 22.9983 15.0596 23.6778V28.7998H10.0828V23.6778C10.0828 22.9983 9.53188 22.4474 8.85234 22.4474H8.56998L12.5712 16.9403Z" fill="white"/>
<path d="M24.4795 24.9034V29.2099C24.4795 30.3407 25.3995 31.2607 26.5303 31.2607H32.3274C33.4582 31.2607 34.3782 30.3407 34.3782 29.2099V24.9034C35.9779 24.7935 36.8431 22.9582 35.8941 21.6521L31.088 15.0371C30.2704 13.9117 28.5895 13.9089 27.7697 15.0371L22.9636 21.6521C22.0133 22.9601 22.8821 24.7937 24.4795 24.9034ZM29.4288 16.9403L33.43 22.4474H33.1476C32.4681 22.4474 31.9171 22.9983 31.9171 23.6778V28.7998H26.9404V23.6778C26.9404 22.9983 26.3895 22.4474 25.7099 22.4474H25.4276L29.4288 16.9403Z" fill="white"/>
<path d="M35.4112 34.0274H6.58887C5.90932 34.0274 5.3584 34.5783 5.3584 35.2579C5.3584 35.9374 5.90932 36.4883 6.58887 36.4883H35.4111C36.0907 36.4883 36.6416 35.9374 36.6416 35.2579C36.6416 34.5783 36.0907 34.0274 35.4112 34.0274Z" fill="white"/>
</g>
<defs>
<clipPath id="clip0_6_535">
<rect width="42" height="42" fill="white"/>
</clipPath>
</defs>
</svg>
