<svg width="42" height="42" viewBox="0 0 42 42" fill="none" xmlns="http://www.w3.org/2000/svg">
<g clip-path="url(#clip0_6_544)">
<path d="M12.9443 15.4817C12.2648 15.4817 11.7139 16.0326 11.7139 16.7122V19.0911C11.7139 19.7706 12.2648 20.3215 12.9443 20.3215C13.6239 20.3215 14.1748 19.7706 14.1748 19.0911V16.7122C14.1748 16.0325 13.6239 15.4817 12.9443 15.4817Z" fill="#005EB8"/>
<path d="M39.1289 34.6172H36.5203V23.6939C36.5203 22.3264 35.4088 21.2149 34.0413 21.2149C33.4163 21.2149 29.5577 21.2149 28.9989 21.2149V2.87109C28.9989 1.28789 27.711 0 26.1278 0H8.35078C6.76758 0 5.47969 1.28789 5.47969 2.87109V34.6172H2.87109C1.28789 34.6172 0 35.9051 0 37.4883V39.1289C0 40.7121 1.28789 42 2.87109 42H6.71016H27.7684H39.1289C40.7121 42 42 40.7121 42 39.1289V37.4883C42 35.9051 40.7121 34.6172 39.1289 34.6172ZM34.0594 23.6939V34.6172C33.5053 34.6172 22.0256 34.6172 21.4774 34.6172V23.6939C21.4774 23.6832 21.4856 23.6759 21.4955 23.6759H23.9425V28.2368C23.9425 29.6751 25.5298 30.5514 26.7381 29.802L27.7684 29.1711L28.7971 29.802C30.0234 30.553 31.5943 29.6665 31.5943 28.2368V23.6759H34.0413C34.0512 23.6759 34.0594 23.6832 34.0594 23.6939ZM29.1334 23.6759V27.1212C28.964 27.0168 29.0533 27.0715 28.7265 26.8718C27.6757 26.2297 26.8004 26.8766 26.4034 27.1212V23.6759H26.5379H28.9989H29.1334ZM7.94063 2.87109C7.94063 2.64469 8.12438 2.46094 8.35078 2.46094H26.1278C26.3542 2.46094 26.5379 2.64469 26.5379 2.87109V21.2149C25.9794 21.2149 22.1203 21.2149 21.4955 21.2149C20.128 21.2149 19.0165 22.3264 19.0165 23.6939V34.6172H7.94063V2.87109ZM39.5391 39.1289C39.5391 39.3553 39.3553 39.5391 39.1289 39.5391C38.6525 39.5391 3.36632 39.5391 2.87109 39.5391C2.64469 39.5391 2.46094 39.3553 2.46094 39.1289V37.4883C2.46094 37.2619 2.64469 37.0781 2.87109 37.0781H39.1289C39.3553 37.0781 39.5391 37.2619 39.5391 37.4883V39.1289Z" fill="white"/>
</g>
<defs>
<clipPath id="clip0_6_544">
<rect width="42" height="42" fill="white"/>
</clipPath>
</defs>
</svg>
