<svg width="42" height="42" viewBox="0 0 42 42" fill="none" xmlns="http://www.w3.org/2000/svg">
<g clip-path="url(#clip0_6_578)">
<path d="M0 7.875V34.125H42V7.875H0ZM22.7717 21.7383C21.7287 22.5564 20.2713 22.5564 19.2283 21.7383L4.68892 10.3359H37.3111L22.7717 21.7383ZM14.3686 21.0545L2.46094 28.9599V11.716L14.3686 21.0545ZM16.4085 22.6541L17.7095 23.6747C18.6785 24.4344 19.8391 24.8141 21 24.8141C22.1606 24.8141 23.3219 24.4344 24.2902 23.6747L25.5915 22.6541L39.1626 31.6641H2.83745L16.4085 22.6541ZM27.6314 21.0545L39.5391 11.716V28.9599L27.6314 21.0545Z" fill="#005EB8"/>
</g>
<defs>
<clipPath id="clip0_6_578">
<rect width="42" height="42" fill="white"/>
</clipPath>
</defs>
</svg>
