<svg width="40" height="40" viewBox="0 0 40 40" fill="none" xmlns="http://www.w3.org/2000/svg">
<path d="M36.0343 18.8281C35.322 18.8281 30.1735 18.8281 29.3546 18.8281V6.34766C29.3546 4.83984 28.1281 3.61328 26.6203 3.61328C25.9366 3.61328 20.5626 3.61328 19.8148 3.61328C19.3476 1.54688 17.4976 0 15.2929 0C13.0882 0 11.2382 1.54688 10.771 3.61328C10.0237 3.61328 4.64933 3.61328 3.96558 3.61328C2.45776 3.61328 1.2312 4.83984 1.2312 6.34766V37.2656C1.2312 38.7734 2.45776 40 3.96558 40H36.0343C37.5421 40 38.7687 38.7734 38.7687 37.2656V21.5625C38.7687 20.0547 37.5421 18.8281 36.0343 18.8281ZM30.3562 21.1719V24.6516C29.2028 23.9444 29.3995 24.0648 29.2023 23.9445C28.5734 23.5602 27.7921 23.5602 27.1617 23.9453C26.9665 24.0647 27.1626 23.9445 26.0093 24.6516V21.1719H30.3562ZM9.2773 5.95703H11.8328C12.4989 5.95703 13.0316 5.4018 13.0039 4.73516C12.9431 3.45961 13.972 2.34375 15.2929 2.34375C16.6039 2.34375 17.6433 3.44875 17.582 4.73516C17.5542 5.40336 18.0885 5.95703 18.7531 5.95703H21.3085V8.91328C21.3085 9.12812 21.1335 9.30391 20.9179 9.30391H9.66792C9.45229 9.30391 9.2773 9.12812 9.2773 8.91328V5.95703ZM17.625 37.6562H3.96558C3.74995 37.6562 3.57495 37.4813 3.57495 37.2656V6.34766C3.57495 6.13203 3.74995 5.95703 3.96558 5.95703H6.93354V8.91328C6.93354 10.4211 8.16011 11.6477 9.66792 11.6477H20.9179C22.4257 11.6477 23.6523 10.4211 23.6523 8.91328V5.95703H26.6203C26.8359 5.95703 27.0109 6.13203 27.0109 6.34766V18.8281C26.1876 18.8281 20.9675 18.8281 20.3312 18.8281C18.8234 18.8281 17.5968 20.0547 17.5968 21.5625V37.2656C17.5968 37.3984 17.6062 37.5289 17.625 37.6562ZM36.4249 37.2656C36.4249 37.4813 36.25 37.6562 36.0343 37.6562C35.6074 37.6562 20.4951 37.6562 20.3312 37.6562C20.1164 37.6562 19.9406 37.4813 19.9406 37.2656V21.5625C19.9406 21.3469 20.1164 21.1719 20.3312 21.1719H23.6656V25.35C23.6656 26.4235 24.5354 27.3023 25.6187 27.3023C26.2466 27.3023 26.5936 27.0427 27.0109 26.7867L28.1828 26.0687L29.3546 26.7867C29.6758 26.9835 30.5875 27.6769 31.7007 27.0547C32.3171 26.7094 32.7 26.0563 32.7 25.35V21.1719H36.0343C36.25 21.1719 36.4249 21.3469 36.4249 21.5625V37.2656Z" fill="white"/>
<path d="M30.9437 31.3086C30.4273 31.3086 26.05 31.3086 25.4226 31.3086C24.775 31.3086 24.2507 31.8328 24.2507 32.4805C24.2507 33.1273 24.775 33.6523 25.4226 33.6523H30.9437C31.5906 33.6523 32.1156 33.1273 32.1156 32.4805C32.1156 31.8328 31.5906 31.3086 30.9437 31.3086Z" fill="white"/>
<path d="M11.2097 22.3354L8.83774 24.5823L8.15993 23.9399C7.69024 23.4947 6.94844 23.5146 6.50321 23.9843C6.05797 24.4541 6.0779 25.1958 6.54766 25.6411L8.03141 27.0473C8.48321 27.4756 9.19133 27.4758 9.64344 27.0475L12.8216 24.0369C13.2914 23.5918 13.3115 22.8501 12.8664 22.3802C12.4213 21.9103 11.6795 21.8901 11.2097 22.3354Z" fill="white"/>
<path d="M11.2097 14.4457L8.83774 16.6926L8.15993 16.0502C7.69024 15.605 6.94844 15.6249 6.50321 16.0947C6.05797 16.5644 6.0779 17.3061 6.54766 17.7514L8.03141 19.1576C8.48321 19.5859 9.19133 19.5861 9.64344 19.1578L12.8216 16.1472C13.2914 15.7022 13.3115 14.9604 12.8664 14.4905C12.4213 14.0206 11.6795 14.0005 11.2097 14.4457Z" fill="white"/>
<path d="M11.2099 30.2248L8.83798 32.4717L8.16017 31.8292C7.69048 31.384 6.94869 31.4039 6.50345 31.8737C6.05822 32.3435 6.07814 33.0852 6.5479 33.5304L8.03165 34.9367C8.48345 35.3649 9.19158 35.3652 9.64369 34.9368L12.8218 31.9263C13.2917 31.4812 13.3117 30.7395 12.8667 30.2696C12.4215 29.7998 11.6798 29.7797 11.2099 30.2248Z" fill="white"/>
<path d="M23.2318 16.4093C23.879 16.4093 24.4037 15.8846 24.4037 15.2374C24.4037 14.5902 23.879 14.0656 23.2318 14.0656H17.6992C17.052 14.0656 16.5273 14.5902 16.5273 15.2374C16.5273 15.8846 17.052 16.4093 17.6992 16.4093H23.2318Z" fill="white"/>
</svg>
