<svg width="38" height="42" viewBox="0 0 38 42" fill="none" xmlns="http://www.w3.org/2000/svg">
<path d="M34.5954 0C33.7176 0 19.3248 0 18.427 0C16.843 0 15.5544 1.28855 15.5544 2.87257V8.81549C15.3484 8.96708 15.3953 8.93419 13.8826 10.576C12.0656 12.5482 11.1283 15.2205 11.3113 17.9117L11.4467 19.8109L1.00702 24.7376C0.394734 25.0265 0 25.6503 0 26.3265V30.4113C0 31.573 1.10283 32.413 2.22338 32.1061L12.1271 29.3797L12.3093 31.9477L6.28351 35.1642C5.88221 35.3775 5.63186 35.7953 5.63186 36.25V40.2429C5.63186 41.2113 6.42059 42.0001 7.38905 42.0001H26.1821C27.1514 42.0001 27.9393 41.2113 27.9393 40.2429V36.25C27.9393 35.7953 27.6889 35.3776 27.2876 35.1642L21.2618 31.9469L21.444 29.3797L31.3486 32.1061C32.4758 32.4145 33.5719 31.5648 33.5719 30.4113V26.3265C33.5719 25.6435 33.1703 25.0229 32.5658 24.7376L22.1252 19.8034L22.126 19.7927H34.5954C36.1794 19.7927 37.4679 18.5034 37.4679 16.9202V2.87257C37.4679 1.28855 36.1794 0 34.5954 0ZM2.46217 29.4863V26.7729L11.6338 22.4444L11.949 26.8748L2.46217 29.4863ZM24.3863 2.46217H28.636V7.92004L27.5625 7.26264C26.922 6.87086 26.1152 6.86191 25.4582 7.26346L24.3862 7.92004L24.3863 2.46217ZM8.09402 39.5378V36.9886L12.5005 34.6364L12.8493 39.5378L8.09402 39.5378ZM18.2538 39.5378H15.3181C14.6348 29.9345 13.9453 20.2345 13.8351 18.6831C13.7566 17.5839 13.3637 14.7778 15.6932 12.2445L16.7856 11.0593C17.8684 12.2341 19.861 13.9689 19.8198 17.3305C19.8155 17.6913 19.9049 16.2901 18.2538 39.5378ZM25.4771 36.9886V39.5378H20.7218L21.0706 34.6365L25.4771 36.9886ZM31.1098 26.7729V29.4863L21.6221 26.8748L21.9381 22.4378L31.1098 26.7729ZM35.0058 16.9202C35.0058 17.1458 34.8219 17.3306 34.5954 17.3306H22.2812C22.3041 14.8397 21.375 12.4053 19.6885 10.576C18.1713 8.92844 18.2211 8.96429 18.0167 8.81549V2.87257C18.0167 2.6469 18.2013 2.46217 18.4271 2.46217H21.9242V8.72025C21.9242 10.2943 23.6562 11.2581 24.9913 10.4372L26.5113 9.5057L28.0304 10.4364C29.3685 11.2594 31.0983 10.2935 31.0983 8.72025V2.46217H34.5955C34.8219 2.46217 35.0059 2.64682 35.0059 2.87257L35.0058 16.9202Z" fill="white"/>
</svg>
