<svg width="47" height="42" viewBox="0 0 47 42" fill="none" xmlns="http://www.w3.org/2000/svg">
<path d="M32.2847 19.639C32.2847 18.8875 31.6755 18.2784 30.924 18.2784H22.8384C22.087 18.2784 21.4778 18.8875 21.4778 19.639C21.4778 20.3905 22.087 20.9997 22.8384 20.9997H30.924C31.6754 20.9997 32.2847 20.3905 32.2847 19.639Z" fill="white"/>
<path d="M44.7829 27.2469C43.9992 26.5847 43.0322 26.2073 42.0289 26.152V3.64932C42.0289 1.6374 40.3925 0 38.3805 0C37.6284 0 16.8596 0 15.3817 0C13.3697 0 11.7333 1.63731 11.7333 3.64932V22.6986C10.6266 22.7548 9.52173 22.9526 8.43781 23.2918H2.60069C1.16655 23.2919 0 24.4584 0 25.8926V36.2281C0 37.6622 1.16655 38.8288 2.60069 38.8288H9.89743C11.816 39.7776 15.43 42 21.3124 42C24.4536 42 27.3559 41.2234 28.1965 40.8779L43.4023 35.203C46.7287 33.961 47.525 29.5601 44.7829 27.2469ZM23.3426 2.72141H30.4198V8.80897C28.0633 7.36441 27.7697 7.07188 26.8821 7.07188C25.9727 7.07188 25.6465 7.39733 23.3426 8.80897V2.72141ZM14.4547 3.64932C14.4547 3.13775 14.8701 2.72132 15.3818 2.72132H20.6213V9.19628C20.6213 11.1554 22.7739 12.3517 24.4339 11.3316L26.8812 9.8313L29.3268 11.3307C30.9931 12.3528 33.1412 11.1525 33.1412 9.19628V2.72141H38.3807C38.8923 2.72141 39.3078 3.13775 39.3078 3.64941V26.4977C26.2915 28.7226 27.9253 28.4824 27.0927 28.4824C17.8813 23.8679 17.1369 23.2636 14.4549 22.8402V3.64932H14.4547ZM42.4508 32.6532L27.2695 38.3199C22.8818 39.7686 18.1285 39.5699 13.8778 37.7612C10.4849 36.0833 10.6302 36.1076 10.2149 36.1076H2.72132V26.0132H8.65196C9.20172 26.0132 12.7762 24.3416 17.1316 26.5284C18.2154 27.0715 17.4372 26.681 21.0249 28.4823H21.0258C25.5932 30.7745 25.6827 30.7066 25.9796 31.2036C26.7087 32.4253 25.3948 33.8218 24.1373 33.2101C23.6579 32.9742 20.25 31.2972 19.7705 31.0611C19.0978 30.7298 18.281 31.0053 17.9481 31.6806C17.617 32.3555 17.8946 33.171 18.5685 33.503L22.938 35.6529C25.9956 37.1503 29.5609 34.5039 28.8088 31.0529L41.4375 28.894C43.8018 28.4929 44.6248 31.8422 42.4508 32.6532Z" fill="white"/>
</svg>
