<svg width="40" height="40" viewBox="0 0 40 40" fill="none" xmlns="http://www.w3.org/2000/svg">
<g clip-path="url(#clip0_10_207)">
<path d="M37.2636 30.6261H34.946V18.2901C34.946 16.7824 33.7196 15.556 32.2119 15.556H32.0095V2.57945C32.0095 1.15695 30.8519 7.8125e-05 29.4302 7.8125e-05C29.0762 7.8125e-05 16.6191 7.8125e-05 15.2819 7.8125e-05C13.8594 7.8125e-05 12.7025 1.15695 12.7025 2.57945V15.556H12.5002C10.9925 15.556 9.76611 16.7824 9.76611 18.2901V30.6261H7.05752V2.73406C7.05744 1.22648 5.83096 0 4.32338 0H1.17416C0.527051 0 0.00244141 0.524609 0.00244141 1.17172C0.00244141 1.81883 0.527051 2.34344 1.17416 2.34344H4.32346C4.53885 2.34344 4.714 2.51867 4.714 2.73398C4.714 4.62039 4.71439 33.7309 4.71439 34.9959C4.71439 36.5035 5.9408 37.7299 7.44846 37.7299H10.0271C10.848 39.0891 12.3408 40 14.0413 40C15.7419 40 17.2347 39.0891 18.0557 37.7299H26.6563C27.4773 39.0891 28.9692 40 30.6706 40C32.3712 40 33.864 39.0891 34.685 37.7299H37.2636C38.7713 37.7299 39.9977 36.5035 39.9977 34.9959V33.3602C39.9976 31.8525 38.7712 30.6261 37.2636 30.6261ZM9.35518 35.3865H7.44838C7.23275 35.3865 7.05783 35.2115 7.05783 34.9959V32.9696H9.98322C9.5833 33.6594 9.35439 34.4601 9.35439 35.313C9.35439 35.3373 9.35439 35.3623 9.35518 35.3865ZM20.5132 2.34359H24.1979V5.15578L23.3347 4.62695C22.7236 4.25328 21.9712 4.26297 21.3756 4.62773L20.5131 5.15578V2.34359H20.5132ZM15.046 2.57945C15.046 2.44898 15.1514 2.34352 15.2819 2.34352H18.1699V5.99227C18.1699 6.67031 18.5378 7.29758 19.1299 7.62883C19.7188 7.95891 20.4474 7.94602 21.0257 7.59055L22.356 6.775L23.6856 7.58977C24.9338 8.35727 26.5415 7.45414 26.5415 5.99227V2.34359H29.4303C29.5599 2.34359 29.6662 2.44906 29.6662 2.57953V15.5561C29.045 15.5561 15.66 15.5561 15.046 15.5561V2.57945H15.046ZM24.5292 17.8995V21.3788C23.3357 20.6481 23.0405 20.3836 22.356 20.3836C21.681 20.3836 21.3938 20.6366 20.1828 21.3788V17.8995H24.5292ZM16.3832 35.3865C16.3449 36.6449 15.3084 37.6566 14.0413 37.6566C12.7743 37.6566 11.7378 36.645 11.6995 35.3865C11.6979 35.3623 11.6979 35.338 11.6979 35.313C11.6979 34.021 12.7493 32.9696 14.0413 32.9696C15.3334 32.9696 16.3848 34.021 16.3848 35.313C16.3849 35.338 16.3849 35.3623 16.3832 35.3865ZM25.9845 35.3865H18.7275C18.7283 35.3623 18.7283 35.3373 18.7283 35.313C18.7283 34.46 18.4994 33.6593 18.0995 32.9696H26.6125C26.2126 33.6594 25.9837 34.4601 25.9837 35.313C25.9837 35.3373 25.9837 35.3623 25.9845 35.3865ZM12.1096 30.6261V18.2901C12.1096 18.0745 12.2846 17.8995 12.5001 17.8995H17.8393V22.0772C17.8393 23.1468 18.7048 24.0293 19.7914 24.0293C20.5024 24.0293 20.782 23.7605 22.356 22.7959L23.8988 23.7411C25.1973 24.5387 26.8727 23.6016 26.8727 22.0773V17.8996H32.2119C32.4275 17.8996 32.6024 18.0746 32.6024 18.2902V30.6262H12.1096V30.6261ZM33.0125 35.3865C32.9742 36.6449 31.9377 37.6566 30.6706 37.6566C29.4028 37.6566 28.367 36.645 28.3288 35.3865C28.3272 35.3623 28.3272 35.338 28.3272 35.313C28.3272 34.021 29.3778 32.9696 30.6706 32.9696C31.9627 32.9696 33.0141 34.021 33.0141 35.313C33.0141 35.338 33.0141 35.3623 33.0125 35.3865ZM37.6542 34.9959C37.6542 35.2116 37.4792 35.3865 37.2636 35.3865H35.3568C35.3576 35.3623 35.3576 35.3373 35.3576 35.313C35.3576 34.46 35.1287 33.6593 34.7288 32.9696H37.2636C37.4792 32.9696 37.6542 33.1446 37.6542 33.3602V34.9959Z" fill="white"/>
<path d="M24.8429 10.5444H19.8687C19.2216 10.5444 18.697 11.069 18.697 11.7162C18.697 12.3633 19.2216 12.8879 19.8687 12.8879H24.8429C25.49 12.8879 26.0146 12.3633 26.0146 11.7162C26.0146 11.069 25.49 10.5444 24.8429 10.5444Z" fill="white"/>
</g>
<defs>
<clipPath id="clip0_10_207">
<rect width="40" height="40" fill="white"/>
</clipPath>
</defs>
</svg>
