<svg width="33" height="45" viewBox="0 0 33 45" fill="none" xmlns="http://www.w3.org/2000/svg">
<g clip-path="url(#clip0_6_570)">
<path d="M28.575 29.6971C27.5886 27.9178 25.3384 27.2726 23.5592 28.259L20.739 29.8222C20.1798 30.1323 19.4915 30.0458 19.0262 29.6073C15.024 25.835 12.7632 21.7849 11.9113 16.8611C11.8052 16.2482 12.0995 15.6338 12.6437 15.3322L15.512 13.7424C17.2955 12.754 17.939 10.5107 16.9502 8.727L13.1657 1.9001C12.1793 0.120838 9.92934 -0.524279 8.14999 0.461941L3.37244 3.11C1.43392 4.18446 0.196683 6.14662 0.0628258 8.35891C-0.32442 14.7605 1.45756 21.9646 5.0805 28.6443C8.79555 35.4937 14.0721 41.0226 19.9381 44.2125C21.8572 45.2559 24.1773 45.2775 26.1437 44.1874L30.9212 41.5394C32.7048 40.551 33.3482 38.3076 32.3595 36.524L28.575 29.6971ZM29.6429 39.2335L24.8654 41.8815C23.7196 42.5165 22.3485 42.5221 21.1977 41.8962C10.2421 35.9386 1.94175 20.9653 2.69471 8.51817C2.77381 7.21062 3.50506 6.05099 4.65072 5.41598L9.42828 2.76793C9.93593 2.4865 10.5781 2.67046 10.8597 3.17838L14.6441 10.0052C14.9257 10.513 14.7415 11.1551 14.2338 11.4365L11.3655 13.0263C9.84083 13.8715 9.01616 15.5932 9.31331 17.3106C10.2674 22.8252 12.7791 27.3422 17.2178 31.5257C18.5215 32.7546 20.4506 32.9966 22.0174 32.1281L24.8376 30.5649C25.3454 30.2833 25.9875 30.4675 26.269 30.9754L30.0535 37.8023C30.3354 38.3112 30.1519 38.9512 29.6429 39.2335Z" fill="#005EB8"/>
</g>
<defs>
<clipPath id="clip0_6_570">
<rect width="33" height="45" fill="white"/>
</clipPath>
</defs>
</svg>
