<svg width="42" height="42" viewBox="0 0 42 42" fill="none" xmlns="http://www.w3.org/2000/svg">
<g clip-path="url(#clip0_10_211)">
<path d="M14.0137 32.8738H8.2168C7.53725 32.8738 6.98633 33.4247 6.98633 34.1042C6.98633 34.7838 7.53725 35.3347 8.2168 35.3347H14.0137C14.6932 35.3347 15.2442 34.7838 15.2442 34.1042C15.2442 33.4247 14.6933 32.8738 14.0137 32.8738Z" fill="white"/>
<path d="M39.8395 3.48313C38.8047 3.21825 37.9307 2.51877 37.4417 1.56393C36.9477 0.599238 35.9776 0 34.9099 0H26.0778C25.0102 0 24.0402 0.599238 23.5462 1.56376C23.057 2.51877 22.1831 3.21825 21.1482 3.48313C19.8762 3.80871 18.9878 4.95231 18.9878 6.26423C18.9878 20.5597 18.9861 19.6079 18.9911 19.7695C18.1573 19.7695 3.4883 19.7695 2.87109 19.7695C1.28797 19.7695 0 21.0575 0 22.6406V39.1289C0 40.712 1.28797 42 2.87109 42H19.3594C20.9425 42 22.2305 40.712 22.2305 39.1289V24.8875C22.3141 24.9304 22.3986 24.9722 22.4849 25.0113L28.0316 27.5287C28.8139 27.8839 29.6536 28.0614 30.4936 28.0614C31.3334 28.0614 32.1735 27.8838 32.956 27.5288C35.8602 26.2108 37.0529 25.6694 38.5049 25.0111C40.628 24.0471 42 21.9171 42 19.585V6.26423C42 4.95231 41.1116 3.80871 39.8395 3.48313ZM13.3973 22.2305V25.8843L12.1855 25.1416C11.5324 24.7428 10.7122 24.7342 10.0433 25.1427L8.83313 25.8843V22.2305H13.3973ZM19.7695 39.1289C19.7695 39.3551 19.5855 39.5391 19.3594 39.5391H2.87109C2.64493 39.5391 2.46094 39.3551 2.46094 39.1289V22.6406C2.46094 22.4145 2.64493 22.2305 2.87109 22.2305H6.37219V26.6175C6.37219 28.2218 8.13529 29.2001 9.49413 28.3655L11.1152 27.372L12.7354 28.3649C14.099 29.2022 15.8583 28.2182 15.8583 26.6175V22.2305H19.3594C19.5855 22.2305 19.7695 22.4145 19.7695 22.6406V39.1289ZM39.5391 19.585C39.5391 20.9541 38.7337 22.2045 37.488 22.7702C36.0676 23.4141 34.7292 24.0216 31.9389 25.2879C31.0202 25.7048 29.9669 25.7048 29.0487 25.2879L23.502 22.7704C22.2547 22.2042 21.4487 20.9536 21.4487 19.5842V6.26423C21.4487 6.0772 21.576 5.91396 21.7583 5.86729C23.476 5.42768 24.9261 4.268 25.7365 2.68562C25.8074 2.54707 25.9383 2.46094 26.0778 2.46094H34.9099C35.0494 2.46094 35.1803 2.54699 35.2512 2.68562C36.0616 4.268 37.5117 5.42768 39.2294 5.86729C39.4118 5.91396 39.539 6.0772 39.539 6.26423V19.585H39.5391Z" fill="white"/>
<path d="M34.1148 10.5612L28.894 14.8527L27.0018 12.7721C26.5446 12.2694 25.7663 12.2326 25.2636 12.6897C24.7609 13.147 24.724 13.9252 25.1813 14.4279L27.861 17.3743C28.302 17.8593 29.046 17.9133 29.5526 17.497L35.6776 12.4623C36.2025 12.0308 36.2783 11.2554 35.8467 10.7304C35.4152 10.2055 34.6399 10.1296 34.1148 10.5612Z" fill="white"/>
</g>
<defs>
<clipPath id="clip0_10_211">
<rect width="42" height="42" fill="white"/>
</clipPath>
</defs>
</svg>
