<svg width="42" height="42" viewBox="0 0 42 42" fill="none" xmlns="http://www.w3.org/2000/svg">
<path d="M41.4857 16.3488L38.5768 12.1702C38.0404 11.3999 37.1593 10.9397 36.2201 10.9397H26.469V5.39355C26.469 3.81035 25.1811 2.52246 23.5979 2.52246H7.10965C5.52645 2.52246 4.23855 3.81035 4.23855 5.39355V22.292H2.87109C1.28789 22.292 0 23.5799 0 25.1631V32.915C0 34.4982 1.28789 35.7861 2.87109 35.7861H5.05395C5.60191 37.9066 7.53129 39.4775 9.81996 39.4775C12.1095 39.4775 14.0388 37.9066 14.586 35.7861C22.3494 35.787 25.6815 35.787 28.268 35.7853C28.8159 37.9066 30.7445 39.4775 33.0348 39.4775C35.3284 39.4775 37.2611 37.9001 37.8041 35.773C38.3111 35.7722 38.8508 35.7714 39.4267 35.7705C40.8704 35.6213 42 34.3973 42 32.915V17.9895C42 17.3996 41.822 16.8328 41.4857 16.3488ZM13.0717 4.9834H17.6359V8.63707L16.4235 7.89469C15.7672 7.49273 14.9453 7.49109 14.2816 7.89551L13.0717 8.63707V4.9834ZM9.81996 37.0166C8.45873 37.0166 7.35902 35.9061 7.35902 34.5557C7.35902 33.2056 8.45832 32.0947 9.81996 32.0947C11.1812 32.0947 12.2809 33.2052 12.2809 34.5557C12.2809 35.9057 11.1816 37.0166 9.81996 37.0166ZM24.0081 33.3252H14.586C14.0388 31.2047 12.1095 29.6338 9.81996 29.6338C7.53129 29.6338 5.60191 31.2047 5.05395 33.3252H2.87109C2.64469 33.3252 2.46094 33.1414 2.46094 32.915V25.1631C2.46094 24.9375 2.64469 24.7529 2.87109 24.7529H24.0081V33.3252ZM24.0081 22.292H6.69949V5.39355C6.69949 5.16797 6.88324 4.9834 7.10965 4.9834H10.6107V9.37043C10.6107 10.9807 12.3761 11.9495 13.7329 11.1185L15.3538 10.1251L16.9739 11.1177C18.3364 11.9552 20.0968 10.9709 20.0968 9.37043V4.9834H23.5979C23.8235 4.9834 24.0081 5.16797 24.0081 5.39355V22.292ZM31.6846 13.4006H36.2201C36.3546 13.4006 36.4801 13.4663 36.5572 13.5762L39.4652 17.7548C39.5136 17.8238 39.5391 17.905 39.5391 17.9895V22.1329H31.6846V13.4006ZM26.469 13.4006H29.2236V22.292H26.469V13.4006ZM33.0348 37.0166C31.6732 37.0166 30.5739 35.905 30.5739 34.5557C30.5739 33.2071 31.6704 32.0947 33.0348 32.0947C34.3991 32.0947 35.4957 33.2082 35.4957 34.5557C35.4957 35.9085 34.394 37.0166 33.0348 37.0166ZM39.3996 33.2218C38.8295 33.2268 38.2889 33.2317 37.777 33.2366C37.1995 31.1612 35.2915 29.6338 33.0348 29.6338C30.7453 29.6338 28.8168 31.2039 28.2688 33.3236C27.5658 33.3277 27.3689 33.3252 26.469 33.3252V24.7529H39.5391C39.5391 33.5869 39.5989 33.0496 39.3996 33.2218Z" fill="white"/>
<path d="M18.252 15.627H12.4551C11.7755 15.627 11.2246 16.1779 11.2246 16.8574C11.2246 17.537 11.7755 18.0879 12.4551 18.0879H18.252C18.9315 18.0879 19.4824 17.537 19.4824 16.8574C19.4824 16.1779 18.9315 15.627 18.252 15.627Z" fill="#005EB8"/>
</svg>
