<svg width="42" height="42" viewBox="0 0 42 42" fill="none" xmlns="http://www.w3.org/2000/svg">
<g clip-path="url(#clip0_6_556)">
<path d="M35.9092 8.92013L22.538 0.444579C21.6038 -0.148179 20.3965 -0.148261 19.4627 0.444251L6.09017 8.92062C5.2555 9.45054 4.75708 10.3569 4.75708 11.3451V39.1287C4.75708 40.7119 6.04513 42 7.62834 42H34.3718C35.955 42 37.243 40.712 37.243 39.1287V11.3451C37.243 10.357 36.7447 9.45063 35.9092 8.92013ZM14.687 39.5389H12.1493V32.1558H14.687V39.5389ZM24.852 39.5389H17.1481V32.1558H24.852V39.5389ZM29.8509 39.5389H27.3131V32.1558H29.8509V39.5389ZM29.8509 29.6947C29.4923 29.6947 12.5435 29.6947 12.1493 29.6947V25.9211H29.8509V29.6947ZM29.8509 23.46H12.1493V20.0966C12.1493 19.8704 12.3333 19.6864 12.5595 19.6864H29.4407C29.6669 19.6864 29.8508 19.8704 29.8508 20.0966V23.46H29.8509ZM34.782 39.1287C34.782 39.3549 34.598 39.5389 34.3718 39.5389H32.312C32.312 38.6956 32.312 20.9537 32.312 20.0966C32.312 18.5134 31.0239 17.2253 29.4407 17.2253H12.5595C10.9763 17.2253 9.68822 18.5134 9.68822 20.0966V39.5389H7.62834C7.40218 39.5389 7.21818 39.3549 7.21818 39.1287V11.3451C7.21818 11.204 7.28963 11.0743 7.40849 10.9988L20.7808 2.52268C20.9138 2.43818 21.086 2.4381 21.2199 2.52301L34.5909 10.9983C34.7105 11.0743 34.782 11.204 34.782 11.3451V39.1287Z" fill="white"/>
<path d="M26.6996 10.389H15.3004C14.6207 10.389 14.0698 10.94 14.0698 11.6196C14.0698 12.2992 14.6207 12.8501 15.3004 12.8501H26.6996C27.3792 12.8501 27.9302 12.2992 27.9302 11.6196C27.9302 10.94 27.3791 10.389 26.6996 10.389Z" fill="white"/>
</g>
<defs>
<clipPath id="clip0_6_556">
<rect width="42" height="42" fill="white"/>
</clipPath>
</defs>
</svg>
